<?xml version="1.0" encoding="utf-8"?>
<!-- Generator: Adobe Illustrator 24.0.2, SVG Export Plug-In . SVG Version: 6.00 Build 0)  -->
<svg version="1.1" id="Capa_1" xmlns="http://www.w3.org/2000/svg" xmlns:xlink="http://www.w3.org/1999/xlink" x="0px" y="0px"
	 viewBox="0 0 1000 672.41" style="enable-background:new 0 0 1000 672.41;" xml:space="preserve">
<style type="text/css">
	.st0{fill:#161616;}
	.st1{fill:none;stroke:#5858BF;stroke-width:0.5;stroke-miterlimit:10;}
	.st2{fill:#A434BF;stroke:#5858BF;stroke-width:0.5;stroke-miterlimit:10;}
	.st3{fill:#FFFFFF;}
	.st4{fill:#D8D8D8;}
	.st5{fill:none;stroke:#FFFFFF;stroke-miterlimit:10;}
</style>
<g>
	<g>
		<polygon class="st3" points="577.62,134.45 577.62,179.26 538.81,156.84 500,134.45 461.19,156.84 422.38,179.26 422.38,134.45 
			422.4,134.45 461.19,112.06 461.19,112.04 461.21,112.04 500,89.64 538.81,112.04 538.81,112.06 577.6,134.45 		"/>
		<polygon class="st3" points="538.81,201.68 500,224.07 461.19,201.68 500,179.26 		"/>
		<polygon class="st3" points="732.85,134.45 694.03,156.84 694.03,156.87 694.01,156.87 655.22,134.45 616.41,112.06 
			616.41,112.04 577.62,89.64 577.6,89.64 538.81,67.25 538.79,67.25 500,44.83 461.19,67.25 422.4,89.64 422.38,89.64 
			383.59,112.04 383.59,112.06 344.78,134.45 305.97,156.87 305.97,156.84 267.15,134.45 305.94,112.04 305.97,112.04 344.78,89.64 
			344.78,89.62 383.56,67.23 383.59,67.23 422.38,44.83 461.19,22.42 500,0 538.81,22.42 577.62,44.83 616.41,67.23 616.44,67.23 
			655.22,89.62 655.22,89.64 694.03,112.04 694.06,112.04 		"/>
		<polygon class="st3" points="732.85,134.45 732.85,268.88 694.03,291.3 694.03,336.11 732.82,358.5 732.85,358.5 732.85,403.31 
			694.03,380.92 694.03,380.89 655.22,358.5 655.22,313.69 616.41,336.11 616.41,470.53 577.62,492.93 577.62,313.69 616.41,291.3 
			616.41,291.27 655.22,268.88 694.03,246.46 694.03,201.68 655.22,224.07 616.41,246.46 616.41,246.49 577.62,268.88 577.6,268.88 
			538.81,291.27 538.81,515.34 500,537.76 500,268.88 538.79,246.49 538.81,246.49 538.81,246.46 577.62,224.07 616.41,201.68 
			616.41,201.65 616.44,201.65 655.22,179.26 694.01,156.87 694.03,156.87 694.03,156.84 		"/>
		<polygon class="st4" points="500,268.88 500,537.76 461.19,515.34 461.19,291.27 422.4,268.88 422.38,268.88 383.59,246.49 
			383.59,246.46 344.78,224.07 305.97,201.68 305.97,246.46 344.78,268.88 383.59,291.27 383.59,336.11 344.78,313.69 305.97,291.3 
			305.97,425.73 305.94,425.73 267.15,403.31 267.15,134.45 305.97,156.84 305.97,156.87 344.78,179.26 383.59,201.65 
			383.59,201.68 422.38,224.07 461.19,246.46 461.19,246.49 		"/>
	</g>
	<g>
		<path class="st3" d="M0,672.41v-65.82h60.07v7.4H7.41v21.76h42.33v7.5H7.41v29.16H0z"/>
		<path class="st3" d="M74.83,670.94c-1.68-0.97-3-2.3-3.98-3.98c-0.98-1.67-1.46-3.52-1.46-5.53v-54.85h7.4v54.85
			c0,0.97,0.35,1.81,1.05,2.51c0.7,0.7,1.54,1.05,2.51,1.05h43.88c0.97,0,1.81-0.35,2.51-1.05c0.7-0.7,1.05-1.54,1.05-2.51v-54.85
			h7.41v54.85c0,2.01-0.49,3.86-1.46,5.53c-0.97,1.68-2.3,3-3.98,3.98c-1.68,0.97-3.52,1.46-5.53,1.46H80.36
			C78.35,672.41,76.5,671.92,74.83,670.94z"/>
		<path class="st3" d="M173.77,672.41v-58.42h-29.26v-7.4h65.82v7.4h-29.16v58.42H173.77z"/>
		<path class="st3" d="M225.07,670.94c-1.68-0.97-3-2.3-3.98-3.98c-0.97-1.67-1.46-3.52-1.46-5.53v-54.85h7.4v54.85
			c0,0.97,0.35,1.81,1.05,2.51c0.7,0.7,1.54,1.05,2.51,1.05h43.88c0.97,0,1.81-0.35,2.51-1.05c0.7-0.7,1.05-1.54,1.05-2.51v-54.85
			h7.4v54.85c0,2.01-0.49,3.86-1.46,5.53c-0.98,1.68-2.3,3-3.98,3.98c-1.68,0.97-3.52,1.46-5.53,1.46h-43.88
			C228.6,672.41,226.75,671.92,225.07,670.94z"/>
		<path class="st3" d="M294.76,672.41v-65.73h54.85c2.01,0,3.86,0.5,5.53,1.51c1.67,1.01,3,2.33,3.98,3.98
			c0.97,1.65,1.46,3.47,1.46,5.49v19.29c0,2.01-0.49,3.84-1.46,5.49c-0.97,1.65-2.3,2.97-3.98,3.98c-1.68,1.01-3.52,1.51-5.53,1.51
			h-47.45v24.5H294.76z M305.73,640.41h43.88c0.97,0,1.81-0.33,2.51-1.01s1.05-1.49,1.05-2.47v-19.29c0-0.97-0.35-1.81-1.05-2.51
			c-0.7-0.7-1.54-1.05-2.51-1.05h-43.88c-0.97,0-1.81,0.35-2.51,1.05c-0.7,0.7-1.05,1.54-1.05,2.51v19.29c0,0.98,0.35,1.8,1.05,2.47
			C303.91,640.07,304.75,640.41,305.73,640.41z M350.34,672.41l-21.48-25.6h9.69l21.58,25.51v0.09H350.34z"/>
		<path class="st3" d="M369.88,672.41v-65.82h60.07v7.4h-52.66v21.76h42.33v7.5h-42.33V665h52.66v7.4H369.88z"/>
		<path class="st3" d="M479.69,672.41c-2.5,0-4.77-0.61-6.81-1.83c-2.04-1.22-3.67-2.85-4.89-4.89c-1.22-2.04-1.83-4.31-1.83-6.81
			v-38.76c0-2.5,0.61-4.77,1.83-6.81c1.22-2.04,2.85-3.67,4.89-4.89c2.04-1.22,4.31-1.83,6.81-1.83h52.11v14.26h-48.45
			c-0.97,0-1.72,0.24-2.24,0.73c-0.52,0.49-0.78,1.25-0.78,2.29v31.27c0,0.97,0.26,1.72,0.78,2.24c0.52,0.52,1.26,0.78,2.24,0.78
			h48.45v14.26H479.69z"/>
		<path class="st3" d="M554.63,672.41c-2.44,0-4.69-0.61-6.76-1.83c-2.07-1.22-3.72-2.86-4.94-4.94c-1.22-2.07-1.83-4.33-1.83-6.77
			v-38.76c0-2.5,0.61-4.77,1.83-6.81c1.22-2.04,2.86-3.67,4.94-4.89c2.07-1.22,4.33-1.83,6.76-1.83h38.76
			c2.44,0,4.68,0.61,6.72,1.83c2.04,1.22,3.69,2.85,4.94,4.89c1.25,2.04,1.87,4.31,1.87,6.81v38.76c0,2.44-0.63,4.69-1.87,6.77
			c-1.25,2.07-2.89,3.72-4.94,4.94c-2.04,1.22-4.28,1.83-6.72,1.83H554.63z M592.57,658.14v-37.3h-37.3v37.3H592.57z"/>
		<path class="st3" d="M616.22,672.41v-65.82h14.63l22.31,26.6l22.22-26.6h14.72v65.82h-14.26v-44.16l-22.67,27.06l-22.76-26.97
			v44.07H616.22z"/>
		<path class="st3" d="M699.39,672.41v-65.73h52.2c2.5,0,4.77,0.61,6.81,1.83c2.04,1.22,3.69,2.87,4.94,4.94
			c1.25,2.07,1.87,4.33,1.87,6.77v17c0,2.44-0.63,4.69-1.87,6.77c-1.25,2.07-2.9,3.72-4.94,4.94c-2.04,1.22-4.31,1.83-6.81,1.83
			l-38.03,0.09v21.58H699.39z M750.86,636.48v-15.63h-37.3v15.63H750.86z"/>
		<path class="st3" d="M774.51,620.11c0-2.5,0.61-4.77,1.83-6.81c1.22-2.04,2.86-3.67,4.94-4.89c2.07-1.22,4.33-1.83,6.77-1.83
			h38.67c2.5,0,4.77,0.61,6.81,1.83c2.04,1.22,3.69,2.85,4.94,4.89c1.25,2.04,1.87,4.31,1.87,6.81v52.3h-14.35v-21.21h-37.3v21.21
			h-14.17V620.11z M825.98,636.93v-16.09h-37.3v16.09H825.98z"/>
		<path class="st3" d="M849.64,672.41v-65.82h14.63l36.84,43.88v-43.88h14.35v65.82h-14.63l-37.03-44.07v44.07H849.64z"/>
		<path class="st3" d="M955.2,672.41v-24.59l-30.44-41.23h16.91l20.66,25.96l20.57-25.96h17.1l-30.54,41.32v24.5H955.2z"/>
	</g>
</g>
</svg>
