<?xml version="1.0" encoding="utf-8"?>
<!DOCTYPE svg PUBLIC "-//W3C//DTD SVG 1.0//EN" "http://www.w3.org/TR/2001/REC-SVG-20010904/DTD/svg10.dtd">
<svg version="1.0" xmlns="http://www.w3.org/2000/svg" width="1290px" height="579px" viewBox="0 0 1290 579" preserveAspectRatio="xMidYMid meet">
 <g fill="#3a5d87">
  <path d="M0 289.50 l0 -289.50 645 0 645 0 0 289.50 0 289.50 -645 0 -645 0 0 -289.50z m473.50 250.50 c10.60 -0.25 26.90 -0.50 36.30 -0.50 17.30 0 40.20 -0.80 40.75 -1.40 0.20 -0.20 0.50 -73.45 0.65 -162.75 0.20 -89.30 0.45 -162.70 0.65 -163.10 0.15 -0.50 1 -0.75 2.45 -0.75 2 0 2.35 0.20 3.50 1.90 2.10 3.10 5.10 8.15 7 11.85 1 1.95 2.55 4.65 3.45 6 2.80 4.35 3.70 5.95 4.80 8.20 0.60 1.20 1.80 3.25 2.70 4.50 0.90 1.25 2.20 3.45 2.95 4.90 0.70 1.40 1.50 2.70 1.80 2.90 0.70 0.40 7.60 12.15 13.25 22.50 1.05 1.95 2.55 4.50 3.30 5.75 0.80 1.25 2.25 3.70 3.25 5.50 1.85 3.30 6.65 11.20 12.75 21.25 1.90 3.05 4.35 7.20 5.50 9.25 1.20 2.05 3.10 5.25 4.30 7.10 1.15 1.85 2.90 4.90 3.85 6.75 1 1.85 2.55 4.75 3.55 6.40 0.95 1.65 2.80 5.05 4.10 7.50 2.75 5.20 6.25 8.90 10.95 11.55 3.70 2.05 9.60 4.20 11.65 4.20 4.25 0 14.05 -5.10 18.40 -9.60 1.35 -1.40 3.80 -5.40 6.90 -11.40 2.70 -5.10 5.15 -9.60 5.50 -10 0.35 -0.40 1.10 -1.65 1.65 -2.75 0.55 -1.10 2.40 -4.25 4.15 -7.05 1.75 -2.75 3.70 -5.90 4.35 -7 2.90 -4.85 8.90 -15.10 13 -22.20 2.45 -4.25 5.65 -9.65 7.10 -12 1.45 -2.35 3.20 -5.25 3.90 -6.50 0.70 -1.25 1.80 -3.10 2.45 -4.10 0.60 -1.05 1.15 -2 1.15 -2.15 0 -0.20 1.60 -2.95 3.55 -6.15 1.95 -3.20 4 -6.70 4.50 -7.85 0.55 -1.10 2 -3.70 3.25 -5.75 1.25 -2.05 3.15 -5.55 4.25 -7.75 1.10 -2.20 2.75 -5 3.65 -6.25 0.95 -1.25 3.05 -4.85 4.70 -8 1.65 -3.15 4.45 -8.20 6.25 -11.25 1.80 -3 3.85 -6.45 4.55 -7.60 1.15 -1.95 1.45 -2.15 3.25 -2.15 1.10 0 2.10 0.20 2.30 0.50 0.15 0.25 0.25 56.10 0.25 124.10 0 68 0.15 143.20 0.30 167.05 l0.35 43.45 1.20 0.45 c0.65 0.25 16.30 0.40 35.80 0.40 19.05 0 45.50 0 58.85 0.05 16.20 0.05 25.10 -0.10 26.75 -0.50 4.65 -1 12.10 -4.10 18.25 -7.55 1.50 -0.85 3.35 -1.90 4.15 -2.30 1.55 -0.85 25.45 -24.45 27.65 -27.35 0.80 -1.05 2 -2.65 2.70 -3.50 3.85 -4.70 9.50 -13.20 9.50 -14.20 0 -0.60 2.50 -5.60 3.45 -6.85 0.65 -0.80 2.10 -4.80 2.90 -7.75 0.60 -2.30 0.70 -9.75 0.70 -47.55 -0.05 -41.25 0 -44.85 0.75 -45.50 0.70 -0.60 11.85 -0.70 69 -0.80 l68.15 -0.10 7.65 -3.05 c4.20 -1.70 8.65 -3.75 9.90 -4.50 1.25 -0.80 4.85 -2.70 8 -4.20 3.20 -1.50 7.65 -4.15 9.95 -5.90 2.30 -1.75 4.50 -3.35 4.95 -3.65 3.15 -1.95 10.80 -8.65 13.90 -12.10 3.55 -4 8.70 -10.80 10.55 -14.10 0.75 -1.25 3.10 -4.90 5.20 -8.10 2.15 -3.20 4.80 -7.60 5.95 -9.75 1.15 -2.20 2.40 -4.30 2.70 -4.70 0.35 -0.40 1.20 -1.75 1.90 -3 2.40 -4.35 3.55 -6.25 4.90 -8.25 0.75 -1.10 2.65 -4.45 4.25 -7.50 1.60 -3 3.70 -6.75 4.65 -8.25 1 -1.50 2.35 -3.85 3 -5.25 0.65 -1.35 1.65 -3.15 2.20 -3.90 0.55 -0.80 1.55 -2.45 2.25 -3.75 3.40 -6.40 5.40 -9.95 6.20 -11.20 0.55 -0.70 0.95 -1.45 0.95 -1.65 0 -0.20 1.20 -2.40 2.70 -4.90 1.45 -2.55 3.50 -6.30 4.50 -8.35 1.05 -2.05 2.05 -4.10 2.35 -4.50 0.25 -0.40 2.90 -5.60 5.95 -11.50 3 -5.90 6.15 -12 6.95 -13.50 5.25 -9.85 10.60 -24.60 12.85 -35.50 1.55 -7.65 2.10 -18.65 1.25 -25.25 -1.50 -11.30 -9.35 -30.35 -17.30 -42 -1.85 -2.75 -3.55 -5.10 -3.70 -5.25 -0.20 -0.15 -1.30 -1.50 -2.50 -3 -1.25 -1.50 -3.15 -3.60 -4.25 -4.65 -1.15 -1.05 -3.60 -3.45 -5.55 -5.30 -4.15 -4 -17.05 -13.80 -22 -16.70 -1.90 -1.10 -5.95 -3.05 -9 -4.30 l-5.50 -2.30 -142.80 -0.15 -142.80 -0.10 -0.30 19.60 c-0.15 10.80 -0.20 97.30 -0.05 192.15 0.15 125.60 0.05 173.20 -0.35 175 -0.85 3.85 -2.70 6.60 -7.40 11.15 -6.65 6.45 -5.20 6.10 -24.25 6.10 -8.90 0 -16.55 -0.15 -17 -0.30 -0.45 -0.15 -1.05 -1.20 -1.35 -2.35 -0.40 -1.45 -0.45 -55.65 -0.25 -192.30 0.15 -104.65 0.10 -194.45 -0.10 -199.55 l-0.35 -9.25 -38.20 -0.15 c-31.90 -0.10 -38.40 0 -39.25 0.60 -0.60 0.35 -1.65 1.75 -2.30 3.10 -0.70 1.35 -2.40 4.35 -3.80 6.70 -1.40 2.35 -3.50 6.05 -4.65 8.25 -4.80 8.90 -8.25 15.10 -9.30 16.50 -0.60 0.85 -2.15 3.55 -3.50 6 -1.35 2.50 -3.50 6.30 -4.75 8.50 -1.30 2.20 -3.80 6.80 -5.60 10.25 -1.80 3.45 -4.35 8.10 -5.70 10.35 -1.35 2.20 -3.30 5.60 -4.35 7.50 -1.05 1.85 -3.05 5.30 -4.45 7.65 -1.40 2.35 -3.25 5.60 -4.15 7.30 -0.90 1.65 -4.05 7.05 -7 11.95 -2.95 4.95 -5.55 9.50 -5.85 10.20 -0.25 0.70 -0.75 1.60 -1.05 1.95 -0.60 0.75 -2.90 4.95 -9.05 16.40 -1.90 3.55 -4.05 7.45 -4.80 8.70 -0.80 1.25 -2.30 3.95 -3.40 6.05 -1.05 2.10 -3.30 6.05 -5 8.75 -1.65 2.70 -3.60 6.25 -4.35 7.80 -1.75 3.70 -3.50 4.60 -8.30 4.30 -2.95 -0.15 -3.60 -0.40 -4.95 -1.65 -1.55 -1.45 -1.80 -1.95 -4.55 -7.25 -0.80 -1.50 -2.90 -5 -4.65 -7.75 -3.40 -5.20 -3.85 -5.95 -9.45 -15.90 -1.90 -3.30 -4.45 -7.65 -5.75 -9.65 -1.30 -2 -3.35 -5.40 -4.55 -7.55 -3.05 -5.50 -7.10 -12.25 -7.80 -13.15 -0.35 -0.40 -1.40 -2.20 -2.30 -4 -1.65 -3.30 -6.75 -11.85 -10.10 -17.10 -1.05 -1.55 -1.85 -2.95 -1.85 -3.10 0 -0.15 -1.30 -2.40 -2.85 -5.05 -1.60 -2.65 -3.40 -5.65 -3.95 -6.65 -6.40 -11.15 -16.95 -29.05 -19.45 -33.10 -0.60 -0.95 -1.95 -3.20 -3 -5 -1.05 -1.80 -2.85 -4.70 -4 -6.50 -3.75 -5.70 -5.75 -9 -5.75 -9.40 0 -0.20 -0.75 -1.50 -1.70 -2.90 -0.95 -1.40 -2.10 -3.40 -2.50 -4.45 -0.45 -1.05 -2.05 -3.45 -3.60 -5.35 l-2.75 -3.40 -35.85 0.10 -35.85 0.15 0 202.10 c0 111.15 -0.10 202.20 -0.30 202.35 -0.55 0.55 -139.10 0.90 -141.70 0.30 -6.15 -1.30 -6.95 -1.65 -9.90 -4.70 -3 -3.05 -5.35 -6.15 -10.15 -13.30 -1.55 -2.35 -3.70 -5.50 -4.75 -7 -2 -2.90 -3.55 -5.35 -13.30 -21.75 -3.30 -5.50 -7.20 -12 -8.75 -14.50 -1.50 -2.45 -3.45 -5.85 -4.35 -7.50 -0.90 -1.65 -2.30 -3.95 -3.05 -5.05 -0.75 -1.15 -3.25 -5.40 -5.50 -9.50 -3.75 -6.85 -8.05 -13.85 -11.55 -18.95 -0.75 -1.15 -2.55 -4.30 -3.95 -7 -1.40 -2.75 -3.55 -6.45 -4.75 -8.25 -2.60 -3.90 -7.75 -12.70 -7.75 -13.20 0 -0.20 -1.10 -1.95 -2.45 -3.95 -1.35 -2 -3.40 -5.50 -4.55 -7.85 -1.15 -2.35 -2.60 -4.90 -3.25 -5.75 -1.15 -1.60 -9.75 -15.70 -9.75 -16.05 0 -0.15 -1.30 -2.40 -2.95 -5.10 -1.60 -2.65 -3.70 -6.20 -4.65 -7.85 -0.95 -1.65 -4.30 -7.15 -7.40 -12.25 -3.05 -5.05 -6.20 -10.35 -7 -11.75 -0.75 -1.35 -2.50 -4.40 -3.85 -6.75 -3.35 -5.75 -4.70 -8.10 -9.05 -16 -2.05 -3.70 -4.75 -8.30 -6 -10.25 -1.25 -1.90 -3 -4.85 -3.90 -6.55 -1.45 -2.70 -7.95 -13.85 -12.85 -21.95 -1 -1.65 -3 -5.15 -4.50 -7.75 -1.50 -2.60 -4.25 -7.45 -6.20 -10.75 -1.90 -3.30 -4 -7 -4.60 -8.25 -0.65 -1.25 -1.90 -3.35 -2.80 -4.75 -2.15 -3.30 -3.90 -6.90 -5 -10.15 -1.35 -4.20 -0.85 -11.25 1.15 -16.05 1.85 -4.45 4.65 -7.90 7.65 -9.40 l2.20 -1.15 134.90 0 134.85 0 -0.10 -36.85 -0.15 -36.90 -132.75 -0.15 c-144.45 -0.15 -141.25 -0.20 -150.05 2.60 -10.85 3.45 -20 8.20 -35.20 18.25 -8.55 5.65 -21.60 19.30 -28 29.30 -5.60 8.70 -6.05 10.10 -9.25 28.50 -0.30 1.65 -0.90 4.60 -1.30 6.55 -1.70 7.95 -0.90 14.05 3.90 29.85 0.60 1.85 4 8.80 7.65 15.50 8.90 16.35 9.65 17.65 11.55 20.90 0.95 1.55 1.70 2.95 1.70 3.10 0 0.20 0.70 1.50 1.55 2.90 1.65 2.80 5.50 9.95 7.10 13.20 1 2.05 3.75 6.80 9.45 16.50 1.80 3.05 4.70 8.30 6.50 11.75 1.80 3.45 4.75 8.95 6.65 12.25 3.15 5.60 4.45 7.95 11.40 20.65 3.05 5.50 5.35 9.55 11.60 20.60 2.45 4.25 5.10 9 5.90 10.50 0.80 1.50 3 5.50 4.90 8.85 1.90 3.35 3.45 6.25 3.45 6.40 0 0.15 1.45 2.60 3.20 5.40 1.75 2.80 4.40 7.35 5.80 10.10 1.45 2.75 3.25 6 4 7.25 0.75 1.25 2.50 4.30 3.85 6.75 6.80 12.25 16.45 29.35 18.10 32 2.25 3.55 5.10 8.45 11.75 20 2.70 4.70 5.50 9.40 6.30 10.50 0.75 1.10 1.95 3 2.60 4.25 0.70 1.25 2.10 3.60 3.05 5.25 1 1.65 2.25 3.80 2.80 4.75 1.50 2.55 9.90 16.50 13.25 22 3.35 5.50 7.30 11.05 15.90 22.30 10.30 13.50 21.35 25.35 27.15 29.25 10.95 7.25 29.40 13.45 47.50 16 18.25 2.55 81.05 3.40 142.25 1.95z"/>
  <path d="M961.35 300.40 c-0.85 -0.50 -1.10 -160.75 -0.30 -161.70 0.50 -0.60 15.75 -0.70 94.95 -0.70 93.05 0 94.40 0 97.25 1 1.60 0.55 3.30 1 3.75 1 1 0 6.30 2.65 7.55 3.80 0.50 0.45 1.45 2.25 2.15 4 1.15 2.80 1.30 3.95 1.30 9.05 0 8.35 -1 11.25 -10.35 29.90 -4.25 8.55 -7.95 15.75 -8.15 16 -0.20 0.30 -2.10 3.90 -4.25 8 -5.95 11.50 -7.65 14.60 -10.50 19.50 -1.45 2.50 -3.80 6.75 -5.25 9.50 -1.45 2.75 -3.45 6.35 -4.50 8 -1 1.65 -3.35 5.60 -5.25 8.75 -3.85 6.40 -6.20 9.90 -11.70 17.35 -3.80 5.05 -7.55 10.30 -11.30 15.70 -1.10 1.55 -2.95 3.85 -4.10 5.10 -1.90 2 -2.45 2.30 -4.75 2.55 -9.45 0.95 -13.40 1.30 -19.15 1.55 -3.55 0.15 -10.20 0.60 -14.75 1 -6.35 0.60 -17.90 0.80 -50.15 0.85 -23.10 0.10 -42.20 0 -42.50 -0.20z"/>
 </g>
 <g fill="#bba374">
  <path d="M381.75 541.95 c-31 -0.50 -41.05 -1 -52 -2.45 -17.80 -2.40 -36.50 -8.65 -47.50 -15.95 -5.80 -3.90 -16.85 -15.75 -27.15 -29.25 -8.60 -11.25 -12.55 -16.80 -15.90 -22.30 -3.35 -5.50 -11.75 -19.45 -13.25 -22 -0.55 -0.95 -1.80 -3.10 -2.80 -4.75 -0.95 -1.65 -2.35 -4 -3.05 -5.25 -0.65 -1.25 -1.85 -3.15 -2.60 -4.25 -0.80 -1.10 -3.60 -5.80 -6.30 -10.50 -6.65 -11.55 -9.50 -16.45 -11.75 -20 -1.65 -2.65 -11.30 -19.75 -18.10 -32 -1.35 -2.45 -3.10 -5.50 -3.85 -6.75 -0.75 -1.25 -2.55 -4.50 -4 -7.25 -1.40 -2.75 -4.05 -7.30 -5.80 -10.10 -1.75 -2.80 -3.20 -5.25 -3.20 -5.40 0 -0.15 -1.55 -3.05 -3.45 -6.40 -1.90 -3.35 -4.10 -7.35 -4.90 -8.85 -0.80 -1.50 -3.45 -6.25 -5.90 -10.50 -6.25 -11.05 -8.55 -15.10 -11.60 -20.60 -6.95 -12.70 -8.25 -15.05 -11.40 -20.65 -1.90 -3.30 -4.85 -8.80 -6.65 -12.25 -1.80 -3.45 -4.70 -8.70 -6.50 -11.75 -5.70 -9.70 -8.45 -14.45 -9.45 -16.50 -1.60 -3.25 -5.45 -10.40 -7.10 -13.20 -0.85 -1.40 -1.55 -2.70 -1.55 -2.90 0 -0.15 -0.75 -1.55 -1.70 -3.10 -1.90 -3.25 -2.65 -4.55 -11.55 -20.90 -3.65 -6.70 -7.05 -13.65 -7.65 -15.50 -3.90 -12.80 -4.70 -17 -4.75 -23.65 0 -2.95 0.35 -6.90 0.80 -9 0.45 -2.05 1.05 -5.10 1.35 -6.75 3.20 -18.40 3.65 -19.80 9.25 -28.50 6.40 -10 19.45 -23.65 28 -29.30 15.20 -10.05 24.35 -14.80 35.20 -18.25 8.80 -2.80 5.45 -2.75 151.55 -2.60 l134.25 0.15 0.25 37.90 c0.15 20.80 0.20 38.10 0.10 38.35 -0.15 0.35 -45.70 0.50 -135 0.50 l-134.85 0 -2.20 1.15 c-6.60 3.35 -11.20 15.05 -8.80 22.40 1.10 3.30 2.85 6.90 5 10.20 0.90 1.40 2.15 3.50 2.80 4.75 0.60 1.25 2.70 4.95 4.60 8.25 1.95 3.30 4.70 8.15 6.20 10.75 1.50 2.60 3.50 6.10 4.50 7.75 4.90 8.10 11.40 19.25 12.85 21.95 0.90 1.70 2.65 4.65 3.90 6.55 1.25 1.95 3.95 6.55 6 10.25 4.35 7.90 5.70 10.25 9.05 16 1.35 2.35 3.10 5.40 3.85 6.75 0.80 1.40 3.95 6.70 7 11.75 3.10 5.10 6.45 10.60 7.40 12.25 0.95 1.65 3.05 5.20 4.65 7.85 1.65 2.70 2.95 4.95 2.95 5.10 0 0.35 8.60 14.45 9.75 16.05 0.65 0.85 2.10 3.40 3.25 5.75 1.15 2.35 3.20 5.85 4.55 7.85 1.35 2 2.45 3.75 2.45 3.95 0 0.50 5.15 9.30 7.75 13.20 1.20 1.80 3.35 5.50 4.75 8.25 1.40 2.70 3.20 5.85 3.95 7 3.50 5.10 7.80 12.10 11.55 18.95 2.25 4.10 4.75 8.35 5.50 9.50 0.75 1.10 2.15 3.40 3.05 5.05 0.90 1.65 2.85 5.05 4.35 7.50 1.55 2.50 5.45 9 8.75 14.50 9.75 16.40 11.30 18.85 13.30 21.75 1.05 1.50 3.20 4.65 4.75 7 4.80 7.15 7.15 10.25 10.15 13.30 2.95 3.05 3.75 3.40 9.90 4.70 2.50 0.55 138.20 0.20 138.75 -0.35 0.15 -0.10 0.25 -91.15 0.25 -202.30 l0 -202.10 37.35 -0.15 37.35 -0.10 2.75 3.40 c1.55 1.90 3.15 4.30 3.60 5.35 0.40 1.05 1.55 3.05 2.50 4.45 0.95 1.40 1.70 2.70 1.70 2.90 0 0.40 2 3.70 5.75 9.40 1.15 1.80 2.95 4.70 4 6.50 1.05 1.80 2.40 4.05 3 5 2.50 4.05 13.05 21.95 19.45 33.10 0.55 1 2.35 4 3.95 6.65 1.55 2.65 2.85 4.90 2.85 5.05 0 0.15 0.80 1.55 1.85 3.10 3.35 5.25 8.45 13.80 10.10 17.10 0.90 1.80 1.95 3.60 2.30 4 0.70 0.90 4.75 7.65 7.80 13.15 1.20 2.15 3.25 5.55 4.55 7.55 1.30 2 3.85 6.35 5.75 9.65 5.60 9.95 6.05 10.70 9.45 15.90 1.75 2.75 3.85 6.25 4.65 7.75 2.70 5.30 3 5.80 4.45 7.20 1.90 1.80 4.80 2.20 7.25 1.05 1.35 -0.60 2.10 -1.50 3.10 -3.65 0.75 -1.55 2.70 -5.10 4.35 -7.80 1.70 -2.70 3.95 -6.65 5 -8.75 1.10 -2.10 2.60 -4.80 3.40 -6.05 0.75 -1.25 2.90 -5.15 4.80 -8.70 6.15 -11.45 8.45 -15.65 9.05 -16.40 0.30 -0.35 0.80 -1.25 1.05 -1.95 0.30 -0.70 2.90 -5.25 5.85 -10.20 2.95 -4.90 6.10 -10.30 7 -11.95 0.90 -1.70 2.75 -4.95 4.15 -7.30 1.40 -2.35 3.40 -5.80 4.45 -7.65 1.05 -1.90 3 -5.30 4.35 -7.50 1.35 -2.25 3.90 -6.90 5.70 -10.35 1.80 -3.45 4.30 -8.05 5.60 -10.25 1.25 -2.20 3.40 -6 4.75 -8.50 1.35 -2.45 2.90 -5.15 3.50 -6 1.05 -1.40 4.50 -7.60 9.30 -16.50 1.15 -2.20 3.25 -5.90 4.65 -8.25 1.40 -2.35 3.10 -5.35 3.80 -6.70 0.65 -1.35 1.70 -2.75 2.30 -3.10 0.85 -0.60 7.60 -0.70 40.75 -0.60 l39.70 0.15 0.30 7 c0.20 3.85 0.25 93.75 0.10 199.75 -0.10 129.50 0 193.30 0.30 194.45 0.30 0.95 0.80 1.90 1.15 2.15 0.35 0.20 7.35 0.40 15.55 0.40 17.50 0 16.30 0.30 22.90 -6.10 4.60 -4.40 6.50 -7.25 7.35 -10.90 0.40 -1.55 0.50 -59.80 0.35 -194.05 -0.05 -105.50 0 -192.05 0.20 -192.40 0.25 -0.40 36.45 -0.50 144.60 -0.45 l144.20 0.15 5.50 2.30 c3.05 1.25 7.10 3.20 9 4.30 4.95 2.90 17.85 12.70 22 16.70 1.95 1.85 4.40 4.25 5.55 5.30 1.10 1.05 3 3.15 4.25 4.65 1.20 1.50 2.30 2.85 2.50 3 0.15 0.15 1.85 2.50 3.70 5.25 7.95 11.65 15.80 30.70 17.30 42 0.90 7.10 0.35 20.60 -1.25 28.25 -2.25 10.95 -7.60 25.70 -12.85 35.50 -0.80 1.50 -3.95 7.60 -6.95 13.50 -3.05 5.90 -5.70 11.10 -5.95 11.50 -0.30 0.40 -1.30 2.45 -2.35 4.50 -1 2.05 -3.05 5.80 -4.50 8.35 -1.50 2.50 -2.70 4.70 -2.70 4.90 0 0.20 -0.40 0.95 -0.95 1.65 -0.80 1.25 -2.80 4.80 -6.20 11.20 -0.70 1.30 -1.70 2.95 -2.25 3.75 -0.55 0.75 -1.55 2.55 -2.20 3.90 -0.65 1.40 -2 3.75 -3 5.25 -0.95 1.50 -3.05 5.25 -4.65 8.25 -1.60 3.05 -3.50 6.40 -4.25 7.50 -1.35 2 -2.50 3.90 -4.90 8.25 -0.70 1.25 -1.55 2.60 -1.90 3 -0.30 0.40 -1.55 2.50 -2.70 4.70 -1.15 2.15 -3.80 6.55 -5.95 9.75 -2.10 3.20 -4.45 6.85 -5.20 8.10 -1.85 3.30 -7 10.10 -10.55 14.10 -3.10 3.45 -10.75 10.15 -13.90 12.10 -0.45 0.30 -2.65 1.90 -4.95 3.65 -2.30 1.75 -6.75 4.40 -9.95 5.90 -3.15 1.50 -6.75 3.40 -8 4.20 -1.25 0.75 -5.70 2.80 -9.95 4.50 l-7.70 3.10 -68.10 0.10 c-56.70 0.05 -68.25 0.15 -68.90 0.75 -0.75 0.60 -0.85 4.45 -0.75 45.50 0.10 39.70 0 45.10 -0.70 47.55 -0.90 3.10 -2.35 7 -2.95 7.75 -0.95 1.25 -3.45 6.25 -3.45 6.85 0 1 -5.65 9.50 -9.50 14.20 -0.70 0.85 -1.90 2.45 -2.70 3.50 -2.20 2.90 -26.10 26.50 -27.65 27.35 -0.80 0.40 -2.65 1.45 -4.15 2.30 -6.15 3.45 -13.60 6.55 -18.20 7.55 -1.60 0.35 -11.10 0.55 -26.75 0.50 -13.40 0 -40.55 0 -60.45 0 -21.05 -0.05 -36.65 -0.25 -37.35 -0.50 l-1.25 -0.45 -0.10 -20.65 c-0.10 -11.35 -0.20 -86.55 -0.30 -167.15 -0.10 -101 -0.30 -146.65 -0.65 -147 -0.65 -0.65 -2.05 1.05 -3.80 4.45 -0.70 1.40 -2.35 4.20 -3.65 6.25 -1.30 2.10 -3.75 6.50 -5.45 9.80 -1.75 3.30 -3.90 7 -4.85 8.25 -0.90 1.25 -2.55 4.05 -3.65 6.25 -1.10 2.20 -3 5.70 -4.25 7.75 -1.25 2.05 -2.70 4.65 -3.25 5.75 -0.50 1.15 -2.55 4.65 -4.50 7.85 -1.95 3.20 -3.55 5.95 -3.55 6.15 0 0.15 -0.55 1.10 -1.15 2.15 -0.65 1 -1.75 2.85 -2.45 4.10 -0.70 1.25 -2.45 4.15 -3.90 6.50 -1.45 2.35 -4.65 7.75 -7.10 12 -4.10 7.10 -10.10 17.35 -13 22.20 -0.65 1.10 -2.60 4.25 -4.35 7 -1.75 2.80 -3.60 5.95 -4.15 7.05 -0.55 1.10 -1.30 2.35 -1.65 2.75 -0.35 0.40 -2.80 4.90 -5.50 10 -5.40 10.35 -6.90 12.20 -13 16.10 -7.60 4.90 -13.65 6 -20.30 3.65 -8.60 -3 -13.85 -7.30 -17.60 -14.50 -1.30 -2.45 -3.15 -5.85 -4.10 -7.50 -1 -1.65 -2.55 -4.55 -3.55 -6.40 -0.95 -1.85 -2.70 -4.90 -3.85 -6.75 -1.20 -1.85 -3.10 -5.05 -4.30 -7.10 -1.15 -2.05 -3.60 -6.20 -5.50 -9.25 -6.10 -10.05 -10.90 -17.95 -12.75 -21.25 -1 -1.80 -2.45 -4.25 -3.25 -5.50 -0.75 -1.25 -2.25 -3.80 -3.30 -5.75 -5.65 -10.35 -12.55 -22.10 -13.25 -22.50 -0.30 -0.20 -1.10 -1.50 -1.80 -2.90 -0.75 -1.45 -2.05 -3.65 -2.95 -4.90 -0.90 -1.25 -2.10 -3.30 -2.70 -4.50 -1.10 -2.25 -2 -3.85 -4.80 -8.20 -0.90 -1.35 -2.45 -4.05 -3.45 -6 -1.90 -3.70 -4.90 -8.75 -7 -11.90 -1.35 -1.95 -2.50 -2.35 -3 -1.10 -0.15 0.40 -0.40 73.80 -0.60 163.10 -0.15 89.35 -0.45 162.60 -0.65 162.80 -0.60 0.65 -5.55 0.80 -42.80 1.30 -19.25 0.30 -46.80 0.75 -61.25 1.05 -26.20 0.55 -30.45 0.50 -66.25 -0.05z m623.20 -242.95 c31.40 0 41.45 -0.15 47.55 -0.75 4.25 -0.40 10.80 -0.85 14.50 -1 6 -0.25 9.90 -0.55 19.40 -1.55 2.30 -0.25 2.85 -0.55 4.75 -2.55 1.15 -1.25 3 -3.55 4.10 -5.10 3.75 -5.40 7.50 -10.65 11.30 -15.70 5.50 -7.45 7.85 -10.95 11.70 -17.35 1.90 -3.15 4.25 -7.10 5.25 -8.75 1.05 -1.65 3.05 -5.25 4.50 -8 1.45 -2.75 3.80 -7 5.25 -9.50 2.85 -4.90 4.55 -8 10.50 -19.50 2.15 -4.10 4.05 -7.70 4.25 -8 0.20 -0.25 3.90 -7.45 8.15 -16 8.90 -17.70 10.35 -21.75 10.35 -28.40 0 -3.50 -0.25 -4.95 -1.30 -7.55 -0.70 -1.75 -1.65 -3.55 -2.15 -4 -1.25 -1.15 -6.55 -3.80 -7.55 -3.80 -0.45 0 -2.15 -0.45 -3.75 -1 -2.85 -1 -4.20 -1 -95.75 -1 -78.10 0 -92.95 0.10 -93.45 0.70 -0.40 0.50 -0.55 21.10 -0.45 79.50 0.15 69.45 0.25 78.90 0.90 79.30 0.40 0.30 1.05 0.35 1.45 0.20 0.40 -0.10 18.65 -0.25 40.50 -0.20z"/>
 </g>
</svg>