<?xml version="1.0" encoding="utf-8"?>
<!-- Generator: Adobe Illustrator 24.0.2, SVG Export Plug-In . SVG Version: 6.00 Build 0)  -->
<svg version="1.1" id="Capa_1" xmlns="http://www.w3.org/2000/svg" xmlns:xlink="http://www.w3.org/1999/xlink" x="0px" y="0px"
	 viewBox="0 0 1500 219.61" style="enable-background:new 0 0 1500 219.61;" xml:space="preserve">
<style type="text/css">
	.st0{fill:#161616;}
	.st1{fill:none;stroke:#5858BF;stroke-width:0.5;stroke-miterlimit:10;}
	.st2{fill:#A434BF;stroke:#5858BF;stroke-width:0.5;stroke-miterlimit:10;}
	.st3{fill:#FFFFFF;}
	.st4{fill:#D8D8D8;}
	.st5{fill:none;stroke:#FFFFFF;stroke-miterlimit:10;}
</style>
<g>
	<g>
		<polygon class="st3" points="126.79,54.91 126.79,73.21 110.94,64.05 95.09,54.91 79.24,64.05 63.39,73.21 63.39,54.91 
			63.4,54.91 79.24,45.76 79.24,45.75 79.25,45.75 95.09,36.61 110.94,45.75 110.94,45.76 126.78,54.91 		"/>
		<polygon class="st3" points="110.94,82.36 95.09,91.51 79.24,82.36 95.09,73.21 		"/>
		<polygon class="st3" points="190.18,54.91 174.33,64.05 174.33,64.06 174.32,64.06 158.48,54.91 142.63,45.76 142.63,45.75 
			126.79,36.61 126.78,36.61 110.94,27.46 110.93,27.46 95.09,18.31 79.24,27.46 63.4,36.61 63.39,36.61 47.55,45.75 47.55,45.76 
			31.7,54.91 15.85,64.06 15.85,64.05 0,54.91 15.84,45.75 15.85,45.75 31.7,36.61 31.7,36.6 47.54,27.45 47.55,27.45 63.39,18.31 
			79.24,9.15 95.09,0 110.94,9.15 126.79,18.31 142.63,27.45 142.64,27.45 158.48,36.6 158.48,36.61 174.33,45.75 174.34,45.75 		
			"/>
		<polygon class="st3" points="190.18,54.91 190.18,109.81 174.33,118.96 174.33,137.26 190.17,146.4 190.18,146.4 190.18,164.7 
			174.33,155.56 174.33,155.55 158.48,146.4 158.48,128.11 142.63,137.26 142.63,192.16 126.79,201.3 126.79,128.11 142.63,118.96 
			142.63,118.95 158.48,109.81 174.33,100.65 174.33,82.36 158.48,91.51 142.63,100.65 142.63,100.66 126.79,109.81 126.78,109.81 
			110.94,118.95 110.94,210.46 95.09,219.61 95.09,109.81 110.93,100.66 110.94,100.66 110.94,100.65 126.79,91.51 142.63,82.36 
			142.63,82.35 142.64,82.35 158.48,73.21 174.32,64.06 174.33,64.06 174.33,64.05 		"/>
		<polygon class="st4" points="95.09,109.81 95.09,219.61 79.24,210.46 79.24,118.95 63.4,109.81 63.39,109.81 47.55,100.66 
			47.55,100.65 31.7,91.51 15.85,82.36 15.85,100.65 31.7,109.81 47.55,118.95 47.55,137.26 31.7,128.11 15.85,118.96 15.85,173.86 
			15.84,173.86 0,164.7 0,54.91 15.85,64.05 15.85,64.06 31.7,73.21 47.55,82.35 47.55,82.36 63.39,91.51 79.24,100.65 
			79.24,100.66 		"/>
	</g>
	<g>
		<path class="st3" d="M253.92,150.82V68.79h74.85v9.23h-65.62v27.11h52.74v9.34h-52.74v36.34H253.92z"/>
		<path class="st3" d="M347.16,149c-2.09-1.21-3.74-2.87-4.96-4.96c-1.22-2.09-1.82-4.39-1.82-6.89V68.79h9.23v68.35
			c0,1.21,0.44,2.26,1.31,3.13c0.87,0.87,1.92,1.31,3.13,1.31h54.68c1.21,0,2.26-0.44,3.13-1.31c0.87-0.87,1.31-1.92,1.31-3.13
			V68.79h9.23v68.35c0,2.51-0.61,4.8-1.82,6.89c-1.21,2.09-2.87,3.74-4.96,4.96s-4.39,1.82-6.89,1.82h-54.68
			C351.55,150.82,349.25,150.21,347.16,149z"/>
		<path class="st3" d="M470.45,150.82v-72.8h-36.45v-9.23h82.02v9.23h-36.34v72.8H470.45z"/>
		<path class="st3" d="M534.38,149c-2.09-1.21-3.74-2.87-4.96-4.96c-1.21-2.09-1.82-4.39-1.82-6.89V68.79h9.23v68.35
			c0,1.21,0.44,2.26,1.31,3.13c0.87,0.87,1.92,1.31,3.13,1.31h54.68c1.21,0,2.26-0.44,3.13-1.31c0.87-0.87,1.31-1.92,1.31-3.13
			V68.79h9.23v68.35c0,2.51-0.61,4.8-1.82,6.89c-1.22,2.09-2.87,3.74-4.96,4.96c-2.09,1.21-4.39,1.82-6.89,1.82h-54.68
			C538.77,150.82,536.47,150.21,534.38,149z"/>
		<path class="st3" d="M621.21,150.82V68.91h68.35c2.51,0,4.8,0.63,6.89,1.88c2.09,1.25,3.74,2.9,4.96,4.96
			c1.21,2.05,1.82,4.33,1.82,6.84v24.04c0,2.51-0.61,4.79-1.82,6.84c-1.21,2.05-2.87,3.7-4.96,4.96c-2.09,1.25-4.39,1.88-6.89,1.88
			h-59.12v30.53H621.21z M634.88,110.95h54.68c1.21,0,2.26-0.42,3.13-1.25c0.87-0.84,1.31-1.86,1.31-3.08V82.58
			c0-1.21-0.44-2.26-1.31-3.13c-0.87-0.87-1.92-1.31-3.13-1.31h-54.68c-1.21,0-2.26,0.44-3.13,1.31c-0.87,0.87-1.31,1.92-1.31,3.13
			v24.04c0,1.22,0.44,2.24,1.31,3.08C632.62,110.53,633.66,110.95,634.88,110.95z M690.47,150.82l-26.77-31.9h12.08l26.88,31.78
			v0.11H690.47z"/>
		<path class="st3" d="M714.82,150.82V68.79h74.85v9.23h-65.62v27.11h52.74v9.34h-52.74v27.11h65.62v9.23H714.82z"/>
		<path class="st3" d="M851.65,150.82c-3.12,0-5.94-0.76-8.49-2.28c-2.55-1.52-4.58-3.55-6.1-6.09c-1.52-2.55-2.28-5.37-2.28-8.49
			v-48.3c0-3.11,0.76-5.94,2.28-8.49c1.52-2.54,3.55-4.57,6.1-6.09c2.54-1.52,5.37-2.28,8.49-2.28h64.93v17.77h-60.38
			c-1.21,0-2.15,0.3-2.79,0.91c-0.65,0.61-0.97,1.56-0.97,2.85v38.96c0,1.21,0.32,2.15,0.97,2.79c0.64,0.65,1.58,0.97,2.79,0.97
			h60.38v17.77H851.65z"/>
		<path class="st3" d="M945.03,150.82c-3.04,0-5.85-0.76-8.43-2.28c-2.58-1.52-4.63-3.57-6.15-6.15c-1.52-2.58-2.28-5.39-2.28-8.43
			v-48.3c0-3.11,0.76-5.94,2.28-8.49c1.52-2.54,3.57-4.57,6.15-6.09c2.58-1.52,5.39-2.28,8.43-2.28h48.3c3.04,0,5.83,0.76,8.37,2.28
			c2.55,1.52,4.59,3.55,6.15,6.09c1.56,2.55,2.34,5.37,2.34,8.49v48.3c0,3.04-0.78,5.85-2.34,8.43c-1.56,2.58-3.61,4.63-6.15,6.15
			c-2.55,1.52-5.34,2.28-8.37,2.28H945.03z M992.31,133.05V86.57h-46.48v46.48H992.31z"/>
		<path class="st3" d="M1021.78,150.82V68.79h18.23l27.8,33.15l27.68-33.15h18.34v82.02h-17.77V95.79l-28.25,33.72l-28.37-33.61
			v54.91H1021.78z"/>
		<path class="st3" d="M1125.42,150.82V68.91h65.05c3.11,0,5.94,0.76,8.49,2.28c2.54,1.52,4.59,3.57,6.15,6.15
			c1.56,2.58,2.33,5.39,2.33,8.43v21.19c0,3.04-0.78,5.85-2.33,8.43c-1.56,2.58-3.61,4.63-6.15,6.15c-2.55,1.52-5.37,2.28-8.49,2.28
			l-47.39,0.12v26.88H1125.42z M1189.55,106.05V86.57h-46.48v19.48H1189.55z"/>
		<path class="st3" d="M1219.02,85.65c0-3.11,0.76-5.94,2.28-8.49c1.52-2.54,3.57-4.57,6.15-6.09c2.58-1.52,5.39-2.28,8.43-2.28
			h48.19c3.11,0,5.94,0.76,8.49,2.28c2.54,1.52,4.59,3.55,6.15,6.09c1.56,2.55,2.34,5.37,2.34,8.49v65.16h-17.89v-26.43h-46.48
			v26.43h-17.66V85.65z M1283.16,106.62V86.57h-46.48v20.05H1283.16z"/>
		<path class="st3" d="M1312.63,150.82V68.79h18.23l45.91,54.68V68.79h17.88v82.02h-18.23l-46.14-54.91v54.91H1312.63z"/>
		<path class="st3" d="M1444.18,150.82v-30.65l-37.94-51.38h21.08l25.75,32.35l25.63-32.35h21.3l-38.05,51.49v30.53H1444.18z"/>
	</g>
</g>
</svg>
